<?xml version="1.0" encoding="UTF-8" standalone="no"?>
<!DOCTYPE svg PUBLIC "-//W3C//DTD SVG 1.1//EN" "http://www.w3.org/Graphics/SVG/1.1/DTD/svg11.dtd">
<svg width="100%" height="100%" viewBox="0 0 1377 1377" version="1.1" xmlns="http://www.w3.org/2000/svg" xmlns:xlink="http://www.w3.org/1999/xlink" xml:space="preserve" xmlns:serif="http://www.serif.com/" style="fill-rule:evenodd;clip-rule:evenodd;stroke-linejoin:round;stroke-miterlimit:2;">
    <g transform="matrix(1,0,0,1,-46.3224,33.756)">
        <g transform="matrix(0.757383,0,0,0.757383,-130.216,-409.449)">
            <path d="M1357.07,1140.61C1357.07,1269.45 1252.63,1373.9 1123.78,1373.9C994.942,1373.9 890.495,1269.45 890.495,1140.61C890.495,1011.77 994.942,907.318 1123.78,907.318C1252.63,907.318 1357.07,1011.77 1357.07,1140.61Z" style="fill:rgb(2,144,255);fill-rule:nonzero;"/>
        </g>
        <g transform="matrix(0.757383,0,0,0.757383,-130.216,-409.449)">
            <path d="M1571,1733.41C1451.31,1838.12 1294.52,1901.6 1122.96,1901.6C968.66,1901.6 826.186,1850.17 712.032,1763.47C755.328,1564.03 932.852,1414.72 1145.31,1414.72C1346.93,1414.72 1517.07,1549.16 1571,1733.41Z" style="fill:rgb(2,144,255);fill-rule:nonzero;"/>
        </g>
    </g>
    <g transform="matrix(1,0,0,1,-435.766,-561.979)">
        <path d="M1123.78,634.714C784.514,634.714 508.501,910.732 508.501,1250C508.501,1589.27 784.514,1865.29 1123.78,1865.29C1463.06,1865.29 1739.07,1589.27 1739.07,1250C1739.07,910.732 1463.06,634.714 1123.78,634.714ZM1123.78,1938.02C744.407,1938.02 435.766,1629.38 435.766,1250C435.766,870.625 744.407,561.979 1123.78,561.979C1503.16,561.979 1811.8,870.625 1811.8,1250C1811.8,1629.38 1503.16,1938.02 1123.78,1938.02Z" style="fill:rgb(84,84,84);fill-rule:nonzero;"/>
    </g>
</svg>
